<svg width="328" height="165" viewBox="0 0 328 165" fill="none" xmlns="http://www.w3.org/2000/svg">
<path d="M165.003 0.10757L190.357 47.8555L190.458 5.46987C190.523 4.62252 190.275 3.78082 189.762 3.10332C189.042 2.42078 188.141 1.9587 187.167 1.77173L187.171 0.160512L207.441 0.208923L207.437 1.82014C206.461 2.00245 205.559 2.46023 204.835 3.13932C204.319 3.81436 204.067 4.65487 204.128 5.50252L203.988 64.0005C203.932 64.8309 204.179 65.6535 204.684 66.315C205.404 66.9976 206.305 67.4596 207.28 67.6466L207.276 69.2578L180.743 69.1944L180.746 67.5832C181.427 67.5252 182.058 67.2015 182.501 66.6822C182.945 66.1628 183.167 65.4896 183.118 64.8082C183.075 63.9838 182.836 63.1815 182.422 62.4677L163.666 26.7158L154.087 44.2476L144.508 61.7794C143.835 62.7955 143.398 63.9485 143.226 65.1547C143.223 66.5321 144.052 67.3137 145.819 67.4998L145.815 69.111L119.828 69.049L119.832 67.4377C120.807 67.2554 121.71 66.7977 122.434 66.1186C122.942 65.4595 123.193 64.6381 123.141 63.8074L123.28 5.30943C123.345 4.46208 123.097 3.62038 122.584 2.94288C121.864 2.26034 120.963 1.79826 119.989 1.61129L119.993 7.18825e-05L141.38 0.0511519L141.377 1.66237C140.398 1.81959 139.491 2.2706 138.775 2.95554C138.252 3.63822 137.991 4.48614 138.041 5.34468L137.94 47.7304L165.003 0.10757Z" fill="#F273B9"/>
<path d="M162.43 69.0491L136.962 21.3618V63.7476C136.9 64.5951 137.149 65.4362 137.664 66.1125C138.386 66.7933 139.287 67.2532 140.263 67.4379V69.0491H119.992V67.4379C120.967 67.2532 121.869 66.7933 122.591 66.1125C123.106 65.4362 123.355 64.5951 123.293 63.7476V5.24949C123.347 4.41893 123.098 3.5969 122.591 2.93659C121.869 2.25578 120.967 1.79586 119.992 1.61122V0H146.526V1.61122C145.845 1.67084 145.215 1.99605 144.773 2.51646C144.33 3.03686 144.11 3.7106 144.161 4.39189C144.205 5.21618 144.446 6.01794 144.862 6.73078L163.703 42.4378L182.778 7.32851C183.448 6.31078 183.883 5.15676 184.052 3.95011C184.052 2.57277 183.22 1.79313 181.453 1.61122V0H207.441V1.61122C206.465 1.79586 205.564 2.25578 204.842 2.93659C204.335 3.5969 204.086 4.41893 204.14 5.24949V63.7476C204.078 64.5951 204.327 65.4362 204.842 66.1125C205.564 66.7933 206.465 67.2532 207.441 67.4379V69.0491H186.053V67.4379C187.031 67.2783 187.937 66.8251 188.651 66.1385C189.173 65.4546 189.431 64.606 189.379 63.7476V21.3618L162.43 69.0491Z" fill="#223628"/>
<path d="M16.892 99.7271L6.78277 80.7562V97.5961C6.7484 97.9417 6.85105 98.287 7.06863 98.5577C7.34351 98.8188 7.6853 98.9987 8.05616 99.0774V99.7271H0V99.0774C0.378306 98.9981 0.728349 98.8186 1.01352 98.5577C1.21975 98.2812 1.32106 97.9404 1.29938 97.5961V74.3632C1.31777 74.0353 1.21615 73.712 1.01352 73.4536C0.731351 73.1832 0.381038 72.9946 0 72.9079V72.2842H10.577V72.9079C10.3131 72.9514 10.0736 73.0881 9.90195 73.2931C9.73029 73.4982 9.63784 73.758 9.6414 74.0253C9.65327 74.3568 9.75183 74.6794 9.92727 74.9609L17.4117 89.1241L25.0001 75.1948C25.2505 74.7805 25.4182 74.3216 25.4939 73.8435C25.4939 73.289 25.156 72.9772 24.4803 72.9079V72.2842H34.8754V72.9079C34.4919 72.988 34.1399 73.1776 33.8619 73.4536C33.6592 73.712 33.5576 74.0353 33.576 74.3632V97.5961C33.5543 97.9404 33.6556 98.2812 33.8619 98.5577C34.1431 98.8242 34.4948 99.0046 34.8754 99.0774V99.7271H26.2995V99.0774C26.6744 99.0102 27.0194 98.8287 27.287 98.5577C27.5046 98.287 27.6072 97.9417 27.5729 97.5961V80.7562L16.892 99.7271Z" fill="#223628"/>
<path d="M56.3931 94.0877H45.9981L44.8286 96.5305C44.5929 96.9639 44.4512 97.442 44.4128 97.9338C44.4128 98.5835 44.8286 98.9733 45.6862 99.1553V99.727H37.4741V99.1553C37.8856 99.1169 38.2755 98.9537 38.5916 98.6875C38.9606 98.2904 39.2594 97.8334 39.4752 97.3361L47.7132 80.7041C47.9742 80.1863 48.1246 79.6199 48.155 79.0409C48.155 78.4951 47.7912 78.0793 47.0376 77.7675V77.3257H55.8734V77.8974C55.5655 77.9706 55.2899 78.142 55.0882 78.3859C54.8866 78.6297 54.7699 78.9327 54.7559 79.2488C54.79 79.8257 54.9591 80.3864 55.2497 80.886L63.6696 96.8944C63.9669 97.5117 64.3425 98.0882 64.7871 98.6095C65.1316 98.9078 65.5565 99.0976 66.0085 99.1553V99.727H56.8349V99.1553C57.7185 98.9993 58.1343 98.6095 58.1343 97.9338C58.101 97.3894 57.9312 96.8621 57.6405 96.4006L56.3931 94.0877ZM54.7819 90.9432L51.0916 83.6926L47.5833 90.9432H54.7819Z" fill="#223628"/>
<path d="M74.5846 90.4762V97.6488C74.5673 97.9926 74.6682 98.3319 74.8704 98.6103C75.1489 98.8719 75.4884 99.0595 75.858 99.1561V99.7278H67.9058V99.1561C68.2807 99.0889 68.6257 98.9073 68.8933 98.6363C69.1154 98.3669 69.2268 98.0232 69.2051 97.6748V79.2496C69.2275 78.9133 69.1258 78.5804 68.9193 78.314C68.6413 78.038 68.2892 77.8484 67.9058 77.7683V77.3265H82.6667C84.1361 77.2986 85.6053 77.3943 87.0586 77.6124C87.9835 77.8033 88.8647 78.1646 89.6574 78.6779C90.4869 79.2517 91.1497 80.0348 91.5788 80.9476C92.0078 81.8604 92.1877 82.8705 92.1002 83.8754C92.1489 84.6507 92.0404 85.4278 91.7814 86.1601C91.5224 86.8925 91.1182 87.565 90.593 88.1373C89.2331 89.3361 87.5534 90.1127 85.7593 90.3723L90.0212 96.2975C90.5591 97.1102 91.1868 97.8599 91.8923 98.5324C92.3371 98.9158 92.8748 99.1757 93.4516 99.286V99.8577H84.0701V99.286C84.7717 99.1041 85.1096 98.7923 85.1096 98.3765C85.0215 97.8876 84.8064 97.4305 84.4859 97.0511L79.964 90.6062L74.5846 90.4762ZM74.5846 86.3962H82.6927C83.6299 86.452 84.5684 86.3103 85.4474 85.9804C85.8579 85.8004 86.2002 85.4942 86.4245 85.1063C86.6489 84.7183 86.7436 84.2689 86.6948 83.8234C86.7319 83.4458 86.6699 83.065 86.5149 82.7187C86.36 82.3723 86.1174 82.0724 85.8112 81.8483C84.843 81.378 83.7649 81.1804 82.6927 81.2766H74.5846V86.3962Z" fill="#223628"/>
<path d="M102.937 79.2488V97.648C102.908 97.9931 103.01 98.3364 103.223 98.6095C103.501 98.8711 103.841 99.0587 104.211 99.1553V99.727H96.2583V99.1553C96.6332 99.0881 96.9782 98.9065 97.2458 98.6355C97.4586 98.3623 97.5607 98.019 97.5317 97.674V79.2488C97.5615 78.9157 97.4691 78.5832 97.2718 78.3132C96.9854 78.0488 96.6367 77.8611 96.2583 77.7675V77.3257H104.211V77.8974C103.84 77.9762 103.498 78.1561 103.223 78.4172C103.039 78.6557 102.939 78.9478 102.937 79.2488V79.2488Z" fill="#223628"/>
<path d="M120.842 76.7275C124.037 76.5719 127.192 77.4864 129.808 79.3262C131.212 80.3936 132.336 81.7862 133.083 83.3842C133.83 84.9822 134.178 86.7378 134.096 88.4998C134.147 90.2093 133.783 91.9056 133.037 93.4441C132.29 94.9827 131.182 96.3178 129.808 97.3356C127.175 99.1131 124.071 100.063 120.894 100.063C117.718 100.063 114.613 99.1131 111.981 97.3356C110.587 96.2923 109.467 94.9271 108.716 93.3568C107.965 91.7864 107.605 90.0576 107.667 88.3179C107.595 86.5806 107.951 84.8524 108.704 83.2847C109.456 81.717 110.581 80.3578 111.981 79.3262C114.571 77.5139 117.684 76.601 120.842 76.7275V76.7275ZM120.842 80.9894C119.797 80.9471 118.754 81.1215 117.779 81.5016C116.804 81.8818 115.918 82.4594 115.177 83.1984C113.899 84.6277 113.192 86.4782 113.192 88.3959C113.192 90.3136 113.899 92.164 115.177 93.5934C116.72 95.0273 118.749 95.8243 120.855 95.8243C122.962 95.8243 124.99 95.0273 126.534 93.5934C127.214 92.9139 127.747 92.1019 128.1 91.2079C128.453 90.3138 128.619 89.3566 128.587 88.3959C128.629 87.4105 128.469 86.4268 128.116 85.5059C127.763 84.585 127.224 83.7465 126.534 83.0424C125.77 82.3383 124.873 81.7939 123.895 81.4413C122.918 81.0888 121.88 80.9351 120.842 80.9894Z" fill="#223628"/>
<path d="M143.711 84.8881V97.648C143.69 97.9965 143.801 98.3401 144.023 98.6095C144.288 98.8887 144.633 99.0793 145.011 99.1553V99.727H137.526V99.1553C137.906 99.0811 138.258 98.9009 138.54 98.6355C138.742 98.357 138.843 98.0177 138.826 97.674V79.2488C138.848 78.9125 138.746 78.5796 138.54 78.3132C138.262 78.0372 137.91 77.8476 137.526 77.7675V77.3257H146.18V77.8974C145.583 78.0533 145.297 78.3132 145.297 78.6771C145.357 79.1209 145.59 79.5229 145.946 79.7945L158.031 91.7748V79.3787C158.048 79.0349 157.947 78.6956 157.745 78.4172C157.464 78.1506 157.112 77.9702 156.731 77.8974V77.3257H164.216V77.8974C163.835 77.9702 163.483 78.1506 163.202 78.4172C163 78.6956 162.899 79.0349 162.916 79.3787V97.7779C162.899 98.1217 163 98.461 163.202 98.7395C163.487 99.0058 163.836 99.1938 164.216 99.2852V99.8569H156.134V99.2852C156.731 99.1553 157.043 98.9214 157.043 98.5576C157.025 98.3351 156.933 98.125 156.783 97.9599L155.692 96.7904L143.711 84.8881Z" fill="#223628"/>
<path d="M199.767 80.3923L193.478 96.2448C193.218 96.7249 193.034 97.242 192.932 97.778C192.932 98.3757 193.426 98.8175 194.439 99.0774V99.7271H185.578V99.0774C186.487 98.8955 186.929 98.4537 186.929 97.7001C186.806 97.086 186.623 96.4855 186.383 95.9069L178.587 75.6626C178.333 74.9381 177.974 74.2551 177.521 73.6355C177.159 73.2427 176.673 72.9859 176.144 72.9079V72.2842H185.681V72.9079C184.85 73.1158 184.434 73.5056 184.434 74.1033C184.466 74.559 184.571 75.0066 184.746 75.4287L190.177 89.9558L196.051 75.3507C196.243 74.9573 196.375 74.5366 196.44 74.1033C196.44 73.4796 195.973 73.0898 195.089 72.9079V72.2842H205.068V72.9079C204.159 73.1678 203.691 73.5836 203.691 74.2333C203.741 74.6467 203.855 75.0499 204.029 75.4287L209.642 89.9558L215.048 75.6626C215.28 75.1635 215.421 74.6265 215.463 74.0773C215.463 73.5056 214.996 73.1158 214.034 72.9079V72.2842H223.468V72.9079C222.946 73.0281 222.463 73.2784 222.064 73.6355C221.651 74.2671 221.319 74.9481 221.077 75.6626L213.28 95.9069C212.992 96.5238 212.799 97.181 212.709 97.856C212.709 98.5057 213.176 98.9215 214.138 99.0774V99.7271H205.042V99.0774C205.978 98.9215 206.446 98.4797 206.446 97.7261C206.326 97.0931 206.115 96.4804 205.822 95.9069L199.767 80.3923Z" fill="#223628"/>
<path d="M239.008 94.0877H228.613L227.444 96.5305C227.208 96.9639 227.066 97.442 227.028 97.9338C227.028 98.5835 227.444 98.9733 228.301 99.1553V99.727H220.037V99.1553C220.456 99.1172 220.855 98.9543 221.181 98.6875C221.54 98.2878 221.829 97.8311 222.038 97.3361L230.276 80.7041C230.555 80.192 230.715 79.6234 230.744 79.0409C230.744 78.4951 230.354 78.0793 229.601 77.7675V77.3257H238.358V77.8974C238.051 77.9706 237.775 78.142 237.573 78.3859C237.372 78.6297 237.255 78.9327 237.241 79.2488C237.286 79.8273 237.464 80.3875 237.761 80.886L246.285 97.0243C246.576 97.6392 246.942 98.2153 247.376 98.7395C247.724 99.0327 248.147 99.2218 248.598 99.2852V99.8569H239.398V99.2852C240.281 99.1293 240.723 98.7395 240.723 98.0638C240.679 97.5177 240.5 96.991 240.203 96.5305L239.008 94.0877ZM237.371 90.9432L233.681 83.6926L230.172 90.9432H237.371Z" fill="#223628"/>
<path d="M257.173 90.4762V97.6488C257.156 97.9926 257.257 98.3319 257.459 98.6103C257.744 98.8767 258.094 99.0646 258.473 99.1561V99.7278H250.495V99.1561C250.875 99.0819 251.226 98.9017 251.508 98.6363C251.71 98.3578 251.811 98.0185 251.794 97.6748V79.2496C251.816 78.9133 251.715 78.5804 251.508 78.314C251.23 78.038 250.878 77.8484 250.495 77.7683V77.3265H265.256C266.725 77.2986 268.194 77.3943 269.647 77.6124C270.571 77.8073 271.452 78.1683 272.246 78.6779C273.069 79.2567 273.725 80.0414 274.149 80.9536C274.574 81.8657 274.751 82.8733 274.663 83.8754C274.709 84.6484 274.602 85.4228 274.348 86.1543C274.094 86.8857 273.697 87.5597 273.182 88.1373C271.808 89.3306 270.122 90.1061 268.322 90.3723L272.584 96.2975C273.122 97.1102 273.75 97.8599 274.455 98.5324C274.907 98.921 275.454 99.1813 276.04 99.286V99.8577H266.555V99.286C267.257 99.1041 267.62 98.7923 267.62 98.3765C267.519 97.8869 267.296 97.431 266.971 97.0511L262.475 90.6062L257.173 90.4762ZM257.173 86.3962H265.308C266.193 86.432 267.076 86.2906 267.906 85.9804C268.317 85.8004 268.659 85.4942 268.883 85.1063C269.108 84.7183 269.203 84.2689 269.154 83.8234C269.196 83.4453 269.137 83.0627 268.981 82.7154C268.826 82.3681 268.58 82.0687 268.27 81.8483C267.31 81.3814 266.241 81.1838 265.178 81.2766H257.044L257.173 86.3962Z" fill="#223628"/>
<path d="M285.525 90.138V95.6474H299.819C300.162 95.6647 300.502 95.5638 300.78 95.3616C301.047 95.0803 301.227 94.7286 301.3 94.348H301.872V101.001H301.3C301.244 100.622 301.06 100.274 300.78 100.013C300.507 99.8006 300.164 99.6985 299.819 99.7275H278.847V99.1557C279.222 99.0886 279.567 98.907 279.834 98.636C280.056 98.3666 280.168 98.0229 280.146 97.6744V79.2492C280.168 78.9129 280.067 78.5801 279.86 78.3137C279.582 78.0377 279.23 77.8481 278.847 77.7679V77.3261H299.195C299.548 77.3592 299.901 77.2571 300.182 77.0403C300.444 76.7654 300.624 76.4236 300.702 76.0527H301.248V82.5237H300.702C300.629 82.1431 300.449 81.7914 300.182 81.5101C299.896 81.3041 299.547 81.2031 299.195 81.2243H285.525V86.1879H294.023C294.36 86.2103 294.693 86.1086 294.959 85.9021C295.239 85.623 295.437 85.2724 295.531 84.8885H296.05V91.3854H295.531C295.438 90.9859 295.241 90.6181 294.959 90.3199C294.682 90.1137 294.342 90.0124 293.997 90.0341L285.525 90.138Z" fill="#223628"/>
<path d="M326.924 79.2228L324.326 84.4204L323.832 84.1605C323.843 83.9674 323.811 83.7743 323.739 83.5947C323.667 83.4151 323.557 83.2534 323.416 83.121C322.421 82.3277 321.27 81.7523 320.038 81.4318C318.571 80.9896 317.048 80.762 315.516 80.7561C314.341 80.7347 313.171 80.9194 312.059 81.3018C310.604 81.8216 309.877 82.6012 309.877 83.5888C309.875 83.9037 309.975 84.2107 310.162 84.4637C310.35 84.7167 310.614 84.9021 310.916 84.9921C312.24 85.3555 313.599 85.5733 314.97 85.6418L318.141 85.8757C320.348 85.9352 322.514 86.4856 324.482 87.4869C325.284 87.9606 325.962 88.6201 326.457 89.41C327.124 90.4181 327.468 91.6056 327.444 92.8144C327.463 93.9138 327.186 94.998 326.642 95.9535C326.098 96.9091 325.307 97.7008 324.352 98.2458C321.92 99.632 319.142 100.29 316.347 100.143C312.955 100.145 309.603 99.4087 306.524 97.9859C306.351 97.9115 306.166 97.8675 305.978 97.8559C305.822 97.8704 305.672 97.9231 305.54 98.0091C305.409 98.0952 305.3 98.2121 305.225 98.3497L304.731 98.1418L307.044 92.6324L307.538 92.8404V92.9963C307.536 93.1654 307.572 93.3328 307.644 93.4859C307.716 93.6389 307.822 93.7736 307.953 93.8798C308.988 94.6392 310.177 95.1626 311.436 95.4131C313.029 95.8442 314.671 96.0626 316.321 96.0628C317.615 96.0789 318.904 95.8948 320.142 95.5171C321.519 95.0493 322.221 94.3216 322.221 93.2821C322.221 92.2426 321.753 91.9048 320.765 91.593C319.639 91.2744 318.479 91.0912 317.309 91.0472L314.138 90.7873C312.829 90.7056 311.526 90.5319 310.24 90.2676C309.408 90.068 308.611 89.7438 307.875 89.306C307.024 88.7716 306.333 88.0175 305.874 87.1231C305.397 86.1807 305.147 85.1391 305.147 84.0825C305.109 82.9394 305.387 81.8079 305.951 80.8128C306.515 79.8177 307.343 78.9977 308.343 78.4432C310.512 77.1937 312.989 76.5813 315.49 76.6761C316.943 76.6613 318.392 76.8272 319.804 77.1698C321.447 77.6373 323.047 78.2459 324.585 78.989C324.943 79.174 325.33 79.2971 325.729 79.3528C326.044 79.3134 326.332 79.1554 326.535 78.911L326.924 79.2228Z" fill="#223628"/>
<path d="M75 147.585C75 153.75 76.6149 165 84.837 165C90.9039 165 97.9475 157.465 100.735 153.75C101.712 152.43 102.547 151.153 103.474 149.784L110.763 136.477C110.763 136.138 110.469 135.746 110.032 135.746C109.59 135.746 109.001 136.089 108.417 137.213C104.844 144.011 101.226 151.251 95.8906 156.685C95.2577 157.318 94.7667 157.613 94.1284 158.202L92.4643 159.67C90.5111 161.186 87.674 162.992 84.8861 162.992C81.7544 162.992 79.8448 160.597 79.0155 157.858C76.5167 151.3 77.788 142.494 79.1628 135.991C80.7723 128.113 84.6897 116.519 90.3147 110.894C91.9787 109.23 93.8392 108.346 95.4487 108.346C97.4564 108.346 99.0223 109.814 99.0223 113.142C99.0223 118.429 97.0145 123.071 95.0613 127.573C94.8158 128.211 94.5212 128.8 94.2757 129.482C93.7901 130.41 93.6919 130.704 94.5212 131.294C95.4978 131.097 95.5469 130.704 95.8906 129.924C97.8493 125.963 100.932 118.816 100.932 114.511C100.932 112.018 101.079 110.305 99.5624 108.155C98.4331 106.638 96.9654 106 95.3996 106C93.2991 106 90.9967 107.124 89.1908 108.542C85.2243 111.674 82.1418 117.741 80.2868 122.439C77.6461 129.138 75 138.337 75 147.585Z" fill="#223628"/>
<path d="M109.491 144.207C111.007 144.207 110.418 142.543 110.713 141.272C110.909 140.099 111.346 139.122 111.837 138.288C112.617 137.016 112.862 137.016 114.723 137.016C115.263 137.016 115.994 137.066 116.632 137.066C117.609 137.066 118.389 136.967 118.389 136.285C118.389 135.647 116.878 135.549 115.454 135.549C114.625 135.549 113.795 135.598 113.353 135.598C111.837 135.598 111.542 136.525 110.811 137.016C110.811 136.378 110.909 136.427 110.909 135.745C110.909 135.254 110.909 134.67 110.958 134.179C111.1 132.81 111.346 131.877 110.025 131.877C108.95 131.877 108.852 136.967 108.852 137.846C108.901 139.073 108.852 140.295 108.901 141.468C108.901 141.812 108.509 144.207 109.491 144.207Z" fill="#223628"/>
<path d="M119.221 143.279C118.146 141.026 120.4 136.623 120.738 135.205C122.451 136.328 121.229 142.739 119.221 143.279ZM116.777 141.615C116.777 144.158 117.852 145.429 119.123 145.429C120.591 145.429 122.402 143.716 123.138 140.344C124.213 135.303 121.867 134.473 121.622 133.541C121.867 133.153 122.304 132.859 122.451 132.515C122.598 132.122 122.304 131.342 121.671 131.342C119.27 131.342 116.777 139.411 116.777 141.615Z" fill="#223628"/>
<path d="M125.386 137.704C125.386 140.781 126.756 143.667 130.133 143.667C133.603 143.667 136.685 140.295 138.693 137.753C138.939 137.458 139.282 137.016 139.424 136.672C139.719 136.039 139.473 135.499 139.037 135.499C138.791 135.499 138.399 135.745 138.055 136.236C136.249 138.68 133.554 142.057 130.182 142.057C129.009 142.057 128.469 141.419 128.125 140.541C126.952 138.14 128.665 133.835 130.378 132.662C130.477 133.492 130.864 133.933 131.257 133.933C131.6 133.933 131.895 133.541 131.895 132.662C131.895 131.391 131.306 130.704 130.329 130.704C127.492 130.704 125.386 135.401 125.386 137.704Z" fill="#223628"/>
<path d="M136.929 140.344C136.929 141.812 137.076 150.814 138.838 150.814C139.766 150.814 140.06 150.618 140.404 149.587C140.988 147.781 141.381 145.724 142.166 143.667C142.75 142.199 144.611 137.556 145.538 136.869C145.538 138.238 145.587 140.443 145.784 141.517C146.127 143.525 146.858 144.403 147.89 144.403C150.187 144.403 152.44 140.295 153.416 138.533C153.907 137.556 154.54 137.016 154.246 135.843C154.055 135.794 153.858 135.745 153.711 135.745C153.318 135.745 153.024 136.089 152.44 137.114C152.047 137.895 151.654 138.582 151.218 139.313C150.383 140.492 149.357 142.494 147.89 142.838C147.251 141.616 147.251 140.492 147.251 138.631C147.251 137.753 147.251 134.768 146.176 134.768C144.709 134.768 144.267 135.794 143.536 137.114C141.43 140.928 140.988 142.396 139.668 146.313L139.28 147.241L139.133 141.763C139.133 136.869 139.618 131.097 140.355 126.595C140.601 124.931 141.332 122.634 140.988 121.118C140.65 121.069 140.404 121.02 140.208 121.02C139.717 121.02 139.569 121.363 139.133 122.634C138.347 125.766 137.567 128.941 137.42 132.22C137.371 132.957 137.272 134.081 137.223 134.817L136.929 140.344Z" fill="#223628"/>
<path d="M154.391 135.549C154.735 134.327 156.35 132.417 157.67 132.172C157.523 133.737 155.619 134.91 154.391 135.549ZM152.193 136.722C152.193 138.091 152.144 139.313 153.317 140.492C154.151 141.321 155.128 141.665 156.154 141.665C159.138 141.665 162.515 138.68 164.327 136.869C164.763 136.329 164.763 136.285 164.621 135.549C163.154 135.549 163.934 135.745 161.926 137.311C161.588 137.556 161.44 137.753 161.048 138.042C160.071 138.779 158.014 140.197 156.301 140.197C155.717 140.197 155.128 140.001 154.686 139.559C153.857 138.73 153.955 137.944 153.955 136.918C155.472 136.82 157.234 135.401 158.014 134.523C159.531 132.613 159.531 130.655 157.376 130.655C155.03 130.655 152.193 134.277 152.193 136.722Z" fill="#223628"/>
<path d="M149.009 122.586C149.009 123.268 149.5 123.415 150.04 123.415C150.33 123.415 150.624 123.366 150.87 123.317C151.312 122.39 150.821 122.586 152.043 122.095C152.632 121.849 153.074 121.511 153.658 121.266C156.691 120.087 159.479 119.258 162.709 118.478C163.2 118.33 164.324 118.134 164.619 118.036L164.177 122.586C164.128 123.219 164.078 124.299 163.98 124.932C163.735 126.351 163.686 132.958 163.686 134.818L163.538 137.115C163.538 140.689 163.396 146.51 163.686 150.029C163.686 151.202 163.735 152.964 165.006 152.964C166.283 152.964 165.546 149.587 165.546 148.463C165.448 146.314 165.497 136.526 165.644 135.058C165.742 134.032 165.644 131.834 165.644 130.41C165.644 129.728 165.792 129.728 165.792 129.089C165.792 128.604 165.742 128.015 165.792 127.573L166.768 117.545C167.941 117.299 175.378 115.881 178.073 115.881C178.411 115.881 178.657 115.881 178.853 115.93C179.442 116.077 179.295 115.881 179.442 116.372C181.297 116.372 180.713 114.413 178.411 114.413C175.427 114.413 172.541 114.904 169.703 115.444C168.972 115.542 167.941 115.832 167.161 115.832C167.161 114.266 168.138 115.542 168.138 114.266C168.138 113.977 168.089 113.78 168.089 113.633C168.039 113.142 168.138 113.535 168.138 112.945C168.138 112.165 167.75 111.527 167.21 111.527C166.572 111.527 165.792 112.411 165.301 115.051C164.962 116.715 165.104 116.273 163.053 116.814C160.265 117.594 149.009 120.382 149.009 122.586Z" fill="#223628"/>
<path d="M183.349 135.549C183.693 134.327 185.308 132.417 186.628 132.172C186.481 133.737 184.576 134.91 183.349 135.549ZM181.15 136.722C181.15 138.091 181.101 139.313 182.274 140.492C183.109 141.321 184.085 141.665 185.111 141.665C188.096 141.665 191.473 138.68 193.284 136.869C193.721 136.329 193.721 136.285 193.579 135.549C192.111 135.549 192.891 135.745 190.884 137.311C190.545 137.556 190.398 137.753 190.005 138.042C189.029 138.779 186.972 140.197 185.258 140.197C184.675 140.197 184.085 140.001 183.644 139.559C182.814 138.73 182.912 137.944 182.912 136.918C184.429 136.82 186.191 135.401 186.972 134.523C188.488 132.613 188.488 130.655 186.333 130.655C183.987 130.655 181.15 134.277 181.15 136.722Z" fill="#223628"/>
<path d="M193.43 140.83C193.43 137.797 194.456 134.523 196.169 132.417C196.66 131.735 197.195 131.097 198.324 130.95C198.275 131.686 194.701 141.272 193.627 141.272C193.479 141.272 193.43 141.174 193.43 140.83ZM199.006 129.63C198.275 129.63 198.564 129.482 198.03 129.482C193.577 129.482 189.322 142.986 193.43 142.986C195.291 142.986 196.218 140.541 196.9 139.025L198.613 134.862C198.761 134.425 198.711 134.523 199.006 134.229C199.006 136.187 198.079 152.621 200.277 152.621C202.04 152.621 200.817 151.546 200.768 148.365C200.67 140.148 200.032 131.539 202.432 123.563C202.727 122.39 204.533 117.496 202.727 117.496C202.678 117.496 202.58 117.545 202.482 117.545C201.303 117.79 200.768 121.266 200.523 122.291L199.497 127.818C199.301 128.456 199.006 128.942 199.006 129.63Z" fill="#223628"/>
<path d="M206.734 144.6C209.036 144.6 210.891 142.445 212.07 141.223C212.85 140.443 215.785 137.164 215.785 136.236C215.785 135.794 215.638 135.647 215.441 135.647C214.514 135.647 211.922 139.122 211.726 139.362C210.989 140.295 208.447 142.887 206.881 142.887C205.561 142.887 205.021 140.001 205.021 138.533C205.021 133.541 206.979 131.342 204.732 131.342C203.749 131.342 203.264 133.541 203.117 134.572C202.576 137.065 202.675 140.443 203.848 142.641C204.388 143.574 205.414 144.6 206.734 144.6ZM205.168 125.177C205.168 126.252 205.806 126.743 206.488 126.743C207.47 126.743 208.496 125.668 207.569 123.857C207.274 123.317 206.93 123.12 206.587 123.12C205.855 123.12 205.168 124.053 205.168 125.177Z" fill="#223628"/>
<path d="M200.078 122.586C200.078 123.268 200.569 123.415 201.109 123.415C201.398 123.415 201.693 123.366 201.939 123.317C202.381 122.39 201.889 122.586 203.112 122.095C203.701 121.849 204.143 121.511 204.727 121.266C207.76 120.087 210.548 119.258 213.778 118.478C214.269 118.33 215.393 118.134 215.687 118.036L215.245 122.586C215.196 123.219 215.147 124.299 215.049 124.932C214.804 126.351 214.754 132.958 214.754 134.818L214.607 137.115C214.607 140.689 214.465 146.51 214.754 150.029C214.754 151.202 214.804 152.964 216.075 152.964C217.351 152.964 216.615 149.587 216.615 148.463C216.517 146.314 216.566 136.526 216.713 135.058C216.811 134.032 216.713 131.834 216.713 130.41C216.713 129.728 216.86 129.728 216.86 129.089C216.86 128.604 216.811 128.015 216.86 127.573L217.837 117.545C219.01 117.299 226.446 115.881 229.142 115.881C229.48 115.881 229.725 115.881 229.922 115.93C230.511 116.077 230.364 115.881 230.511 116.372C232.366 116.372 231.782 114.413 229.48 114.413C226.496 114.413 223.609 114.904 220.772 115.444C220.041 115.542 219.01 115.832 218.23 115.832C218.23 114.266 219.206 115.542 219.206 114.266C219.206 113.977 219.157 113.78 219.157 113.633C219.108 113.142 219.206 113.535 219.206 112.945C219.206 112.165 218.819 111.527 218.279 111.527C217.641 111.527 216.86 112.411 216.369 115.051C216.031 116.715 216.173 116.273 214.122 116.814C211.334 117.594 200.078 120.382 200.078 122.586Z" fill="#223628"/>
<path d="M223.561 144.6C225.864 144.6 227.719 142.445 228.897 141.223C229.678 140.443 232.613 137.164 232.613 136.236C232.613 135.794 232.466 135.647 232.269 135.647C231.342 135.647 228.75 139.122 228.554 139.362C227.817 140.295 225.275 142.887 223.709 142.887C222.388 142.887 221.848 140.001 221.848 138.533C221.848 133.541 223.807 131.342 221.559 131.342C220.577 131.342 220.092 133.541 219.944 134.572C219.404 137.065 219.502 140.443 220.675 142.641C221.215 143.574 222.241 144.6 223.561 144.6ZM221.996 125.177C221.996 126.252 222.634 126.743 223.316 126.743C224.298 126.743 225.324 125.668 224.396 123.857C224.102 123.317 223.758 123.12 223.414 123.12C222.683 123.12 221.996 124.053 221.996 125.177Z" fill="#223628"/>
<path d="M233.099 143.279C232.024 141.026 234.277 136.623 234.616 135.205C236.329 136.328 235.107 142.739 233.099 143.279ZM230.655 141.615C230.655 144.158 231.73 145.429 233.001 145.429C234.468 145.429 236.28 143.716 237.016 140.344C238.091 135.303 235.745 134.473 235.5 133.541C235.745 133.153 236.182 132.859 236.329 132.515C236.476 132.122 236.182 131.342 235.549 131.342C233.148 131.342 230.655 139.411 230.655 141.615Z" fill="#223628"/>
<path d="M240.633 141.861C242.543 141.861 244.496 135.598 246.111 134.523C246.553 135.451 245.871 137.409 246.848 140.345C247.29 141.665 248.119 142.985 249.636 142.985C249.93 142.985 250.225 142.936 250.563 142.838C251.693 142.543 253.258 140.59 253.94 139.706C254.235 139.314 257.121 135.696 255.212 135.696C254.333 135.696 251.742 141.518 249.783 141.518C247.972 141.518 247.873 137.164 247.873 135.942L247.579 133.203C247.339 132.663 246.995 132.417 246.651 132.417C245.478 132.417 244.011 134.911 243.716 135.451L241.37 139.024C241.37 135.205 244.545 130.606 242.396 130.606C240.535 130.606 237.502 141.861 240.633 141.861Z" fill="#223628"/>
</svg>
