<svg xmlns="http://www.w3.org/2000/svg" viewBox="0 0 300 300"><defs><style>.cls-1{fill:#223628;}</style></defs><g id="Layer_2" data-name="Layer 2"><g id="Layer_1-2" data-name="Layer 1"><path class="cls-1" d="M300,46c-.64,1.08-1.25,2.18-1.92,3.24-3.35,5.29-5.88,11.4-10.2,15.73Q182.87,170.5,77.45,275.63c-.35.35-.75.66-1.1,1-9,9.28-17.57,19-30.35,23.35H27c-.7-.6-1.3-1.47-2.11-1.78-11.25-4.17-19-11.82-23.12-23.09C1.47,274.31.6,273.71,0,273V253c1.28-2.44,2.23-5.12,3.89-7.26,4.16-5.36,8.41-10.69,13-15.65,6.91-7.42,14.17-14.52,21.39-21.85L52,223c-3.62,3.19-8.05,6.87-12.23,10.83-4.95,4.69-9.7,9.61-14.52,14.46-8,8.09-8.56,19.87-1.25,27.26,7.52,7.6,19.48,7.36,27.71-.83q37-36.83,73.91-73.8Q198.8,127.74,272,54.6c4.53-4.53,9-9,9.16-16,.19-7.89-2.93-14-10.06-17.54s-14.5-3-20.56,2.31c-5.71,5-10.72,10.88-16.4,16.73l18.78,6.45a37.32,37.32,0,0,1-2.47,3.05c-11.41,11.45-22.76,23-34.36,34.21a11.91,11.91,0,0,1-6.9,2.83,84.22,84.22,0,0,1-15,0c-5.5-.52-9.21,1.6-13,5.44-19.37,19.74-39,39.19-58.54,58.8a32,32,0,0,0-3.22,4.51L105,141c5.44-5.15,11.06-10.27,16.44-15.62,18.32-18.2,36.5-36.53,54.89-54.65a11.37,11.37,0,0,1,6.43-2.67,40.63,40.63,0,0,1,12,0c11.54,2.23,16.83-5.81,23.39-13.3L198.2,48c3.76-3.47,6.85-6.18,9.77-9.07q13-12.83,25.8-25.78C239,7.77,245,3.71,252.27,1.75A10.53,10.53,0,0,0,255,0h14c.31.34.56.91.93,1q23.19,5.48,29.31,28.49c.06.23.5.35.76.52Z"/><path class="cls-1" d="M91.75,181.39,79.37,168.46,92.62,156.1l11.81,12.38Z"/><path class="cls-1" d="M66,182.49l12.07,11.8L64.39,207.13,52.87,194.91Z"/></g></g></svg>