<svg xmlns="http://www.w3.org/2000/svg" viewBox="0 0 298.9 299.15"><defs><style>.cls-1{fill:#223628;}</style></defs><g id="Layer_2" data-name="Layer 2"><g id="Layer_1-2" data-name="Layer 1"><path class="cls-1" d="M166.14,0a1.12,1.12,0,0,1,.4.07,25.13,25.13,0,0,0,4.21,1.35C201,6.05,227.41,18.54,250,39.19h0a1.23,1.23,0,0,0,2.05-.92V20.35a1.23,1.23,0,0,1,1.23-1.23h16.05a1.23,1.23,0,0,1,1.23,1.23V73.14a1.23,1.23,0,0,1-1.23,1.23H216.37a1.23,1.23,0,0,1-1.23-1.23V57.4a1.24,1.24,0,0,1,1.23-1.24h20.32a1.23,1.23,0,0,0,.9-2.08C212.64,27.34,162.07,9,112,24.15c-59.74,18.07-98.31,75-92.89,136.56,5.32,60.47,52.37,110.11,111.34,118.34,69.33,9.67,134.34-36.6,147.5-103.07a1.23,1.23,0,0,1,1.43-1l16.05,3.05a1.23,1.23,0,0,1,.95,1.57c-2.77,8.89-4.86,17.64-8.37,25.78-22.65,52.52-62.46,83.91-118.93,92.21C89.41,309.32,14.09,252.56,1.81,173-10.06,96.07,37.61,23.73,112.88,4.47c6.44-1.65,13-3,19.44-4.44l.27,0Z"/><path class="cls-1" d="M297.6,158.4l-16.13-.94a1.24,1.24,0,0,1-1.17-1.23V141.08a1.23,1.23,0,0,1,1.13-1.23l16.15-1.21a1.23,1.23,0,0,1,1.32,1.23v17.3A1.23,1.23,0,0,1,297.6,158.4Z"/><path class="cls-1" d="M130.45,104.31v53a1.23,1.23,0,0,1-1.23,1.23H95.07a1.23,1.23,0,0,0-1.23,1.23v16.32a1.23,1.23,0,0,0,1.23,1.23h34.05a1.24,1.24,0,0,1,1.24,1.23v16.19a1.24,1.24,0,0,1-1.24,1.23H76.19A1.23,1.23,0,0,1,75,194.74V141.51a1.24,1.24,0,0,1,1.23-1.24h34.3a1.23,1.23,0,0,0,1.23-1.23V123a1.24,1.24,0,0,0-1.23-1.24H76.16a1.23,1.23,0,0,1-1.23-1.23V104.31a1.24,1.24,0,0,1,1.23-1.24h53.06A1.24,1.24,0,0,1,130.45,104.31Z"/><path class="cls-1" d="M223.93,159.73V176.2a1.23,1.23,0,0,1-1.23,1.23H206.81a1.24,1.24,0,0,0-1.23,1.24v16a1.23,1.23,0,0,1-1.23,1.23H188a1.24,1.24,0,0,1-1.24-1.23V178.8a1.23,1.23,0,0,0-1.23-1.23H150.82a1.24,1.24,0,0,1-1.23-1.21c-.22-10.71-1.19-20.73,5.65-30.39,8.89-12.54,16.14-26.24,23.93-39.54,1.61-2.76,3.35-4,6.66-3.79,5.88.29,11.78.11,18.13.09A1.24,1.24,0,0,1,205.2,104v53.3a1.25,1.25,0,0,0,1.24,1.24H222.7A1.23,1.23,0,0,1,223.93,159.73Zm-37.22-23.14-3.22-.89-12.58,21a1.23,1.23,0,0,0,1.05,1.87h13.51a1.23,1.23,0,0,0,1.24-1.23Z"/><path class="cls-1" d="M290.91,100.89c1.57,5.53,3.07,10.79,4.71,16.55a1.25,1.25,0,0,1-.93,1.55l-15.85,3.48a1.25,1.25,0,0,1-1.45-.87c-1.41-4.89-2.75-9.58-4.18-14.58a1.24,1.24,0,0,1,.77-1.5l15.32-5.46A1.25,1.25,0,0,1,290.91,100.89Z"/></g></g></svg>